<?xml version="1.0" encoding="UTF-8"?>
<!DOCTYPE svg PUBLIC "-//W3C//DTD SVG 1.1//EN" "http://www.w3.org/Graphics/SVG/1.1/DTD/svg11.dtd">
<!-- Creator: CorelDRAW -->
<svg xmlns="http://www.w3.org/2000/svg" xml:space="preserve" width="512px" height="512px" version="1.1" style="shape-rendering:geometricPrecision; text-rendering:geometricPrecision; image-rendering:optimizeQuality; fill-rule:evenodd; clip-rule:evenodd"
viewBox="0 0 512 512"
 xmlns:xlink="http://www.w3.org/1999/xlink">
 <defs>
  <style type="text/css">
   <![CDATA[
    .fil0 {fill:black}
   ]]>
  </style>
 </defs>
 <g id="Layer_x0020_1">
  <metadata id="CorelCorpID_0Corel-Layer"/>
  <g id="_185580248">
   <g>
    <g id="_185577728">
     <path class="fil0" d="M256 501c-4,0 -7,-4 -7,-7 0,-4 3,-7 7,-7 130,0 236,-106 236,-237 0,-4 3,-7 7,-7 4,0 7,3 7,7 0,67 -26,130 -73,177 -47,48 -110,74 -177,74zm-243 -244c-4,0 -7,-3 -7,-7 0,-67 26,-129 73,-177 47,-47 110,-73 177,-73 4,0 7,3 7,7 0,4 -3,7 -7,7 -130,0 -236,106 -236,236 0,4 -3,7 -7,7z"/>
    </g>
    <g id="_185579096">
     <path class="fil0" d="M30 512c-1,0 -3,-1 -5,-2 -2,-2 -2,-6 -1,-9l67 -108c-34,-40 -53,-90 -53,-143 0,-58 23,-112 64,-154 41,-41 96,-63 154,-63 58,0 113,22 154,63 41,42 64,96 64,154 0,58 -23,113 -64,154 -41,41 -96,64 -154,64 -39,0 -77,-11 -111,-30l-111 73c-1,1 -2,1 -4,1zm226 -465c-112,0 -204,91 -204,203 0,51 19,100 53,137 2,3 3,6 1,9l-53 86 88 -59c3,-1 5,-1 8,0 32,20 69,31 107,31 112,0 204,-91 204,-204 0,-112 -92,-203 -204,-203z"/>
    </g>
    <g>
     <g id="_185578424">
      <path class="fil0" d="M311 416l-104 0c-3,0 -7,-3 -7,-7l0 -28c0,-4 4,-7 7,-7l26 0 0 -148 -26 0c-3,0 -7,-3 -7,-7l0 -28c0,-4 4,-7 7,-7l104 0c4,0 7,3 7,7l0 28c0,4 -3,7 -7,7l-26 0 0 148 26 0c4,0 7,3 7,7l0 28c0,4 -3,7 -7,7zm-97 -14l90 0 0 -14 -26 0c-4,0 -7,-3 -7,-7l0 -162c0,-4 3,-7 7,-7l26 0 0 -14 -90 0 0 14 26 0c4,0 7,3 7,7l0 162c0,4 -3,7 -7,7l-26 0 0 14z"/>
     </g>
     <g id="_185579816">
      <path class="fil0" d="M259 160c-21,0 -37,-17 -37,-38 0,-20 16,-37 37,-37 21,0 38,17 38,37 0,21 -17,38 -38,38zm0 -61c-13,0 -23,10 -23,23 0,13 10,24 23,24 13,0 24,-11 24,-24 0,-13 -11,-23 -24,-23z"/>
     </g>
    </g>
    <g>
     <g id="_185579888">
      <path class="fil0" d="M127 284c-4,0 -7,-3 -7,-7l0 -121c0,-4 3,-7 7,-7 4,0 7,3 7,7l0 121c0,4 -3,7 -7,7z"/>
     </g>
     <g id="_185580032">
      <path class="fil0" d="M370 284c-4,0 -7,-3 -7,-7l0 -121c0,-4 3,-7 7,-7 3,0 7,3 7,7l0 121c0,4 -4,7 -7,7z"/>
     </g>
    </g>
    <g>
     <g id="_185579432">
      <path class="fil0" d="M127 349c-4,0 -7,-3 -7,-7l0 -28c0,-4 3,-7 7,-7 4,0 7,3 7,7l0 28c0,4 -3,7 -7,7z"/>
     </g>
     <g id="_185580368">
      <path class="fil0" d="M370 349c-4,0 -7,-3 -7,-7l0 -28c0,-4 3,-7 7,-7 3,0 7,3 7,7l0 28c0,4 -4,7 -7,7z"/>
     </g>
    </g>
   </g>
  </g>
 </g>
</svg>
