<?xml version="1.0" encoding="iso-8859-1"?>
<!-- Uploaded to: SVG Repo, www.svgrepo.com, Generator: SVG Repo Mixer Tools -->
<svg fill="#000000" version="1.1" id="Layer_1" xmlns="http://www.w3.org/2000/svg" xmlns:xlink="http://www.w3.org/1999/xlink" 
	 viewBox="0 0 496 496" xml:space="preserve">
<g>
	<g>
		<g>
			<path d="M444.36,264H496V56H372.08C331.152,19.888,278.704,0,224,0C100.488,0,0,100.488,0,224s100.488,224,224,224
				c45.824,0,89.04-14.24,125.088-38.656c3.712-1.88,7.312-3.92,10.824-6.12L372.688,416l-10.344,10.344l11.312,11.312L384,427.312
				l59.72,59.712c5.784,5.792,13.464,8.976,21.656,8.976c16.88,0,30.624-13.736,30.624-30.632c0-8.176-3.184-15.864-8.968-21.656
				L427.312,384l10.344-10.344l-11.312-11.312L416,372.688l-12.776-12.776c2-3.2,3.896-6.464,5.632-9.832
				C426.304,324.72,438.648,295.552,444.36,264z M423.776,281.2c-0.304-5.68-0.992-11.424-2.048-17.2h6.184
				C426.768,269.832,425.392,275.56,423.776,281.2z M480,72v176H316.992L264,294.368V72H480z M323.008,264h41.176
				c2.488,7.832,3.816,15.872,3.816,24c0,44.112-35.888,80-80,80s-80-35.888-80-80c0-29.056,15.368-55.096,40-69.232v110.856
				L323.008,264z M346.464,56h-60.008c-12.984-16.536-25.896-29.192-36.288-38.152C285,22.248,318.072,35.28,346.464,56z M232,23.64
				c8.624,6.8,20.88,17.536,33.752,32.36H248v78.864c-5.52,0.456-10.856,0.76-16,0.912V23.64z M232,151.776
				c5.16-0.144,10.504-0.432,16-0.864v7.36c-5.488,1.688-10.856,3.608-16,5.928V151.776z M153.064,304.24
				c-6.576,1.552-12.896,3.24-18.848,5.08c-7.888-22.56-13.192-48.312-14.032-77.32h43.936c-7.792,17.2-12.12,36.184-12.12,56
				C152,293.504,152.424,298.904,153.064,304.24z M120.184,216c0.84-28.896,6.128-54.584,14.008-77.104
				c22.688,7.016,50.072,12.088,81.808,12.856v21.088c-17.616,10.992-32.368,25.792-43.248,43.16H120.184z M140.032,123.752
				C162.312,71.304,197.552,38.32,216,23.68v112.072C186.656,134.984,161.2,130.256,140.032,123.752z M197.768,17.712
				C176.616,35.76,145.088,68.84,124.52,118.4c-28.848-10.92-48.056-24.136-57.032-31.176
				C100.208,49.84,146.048,24.256,197.768,17.712z M57.336,99.68c9.928,7.936,30.48,22.224,61.44,33.896
				c-8.256,24-13.768,51.432-14.592,82.424H16.2C17.856,172.512,32.88,132.384,57.336,99.68z M57.36,348.344
				C32.888,315.64,17.856,275.504,16.2,232h87.984c0.824,31.08,6.368,58.584,14.664,82.624
				C87.864,326.296,67.272,340.488,57.36,348.344z M67.488,360.768c8.952-7.04,28.128-20.24,57.04-31.152
				c20.568,49.56,52.096,82.624,73.248,100.672C146.048,423.744,100.2,398.16,67.488,360.768z M216,424.36
				c-18.456-14.592-53.736-47.528-76.016-100.072c5.056-1.552,10.44-2.968,15.976-4.296c8.472,34.936,30.4,64.576,60.04,83.176
				V424.36z M232,424.368v-12.576c3.312,1.504,6.704,2.84,10.144,4.08C238.4,419.184,234.992,422.016,232,424.368z M250.216,430.112
				c3.072-2.648,6.416-5.712,9.88-9.016c6.968,1.456,14.168,2.232,21.488,2.576C271.408,426.648,260.912,428.736,250.216,430.112z
				 M475.72,455.024c2.76,2.768,4.28,6.44,4.28,10.344c0,8.072-6.56,14.632-14.624,14.632c-3.848,0-7.616-1.56-10.344-4.288
				L395.312,416L416,395.312L475.72,455.024z M404.688,384L384,404.688l-10.824-10.824c7.616-6.136,14.544-13.072,20.688-20.688
				L404.688,384z M395.128,341.76c-14.768,21.272-33.44,39.544-54.784,54.048C324.504,403.544,306.784,408,288,408
				c-66.168,0-120-53.832-120-120c0-51.16,32.416-96.224,80-113v25.856c-34.184,15.632-56,49.24-56,87.144c0,52.936,43.064,96,96,96
				c52.936,0,96-43.064,96-96c0-8.104-1.12-16.136-3.176-24h24.592c1.688,8.12,2.584,16.168,2.584,24
				C408,307.344,403.296,325.568,395.128,341.76z"/>
			<rect x="280" y="88" width="184" height="16"/>
			<rect x="280" y="120" width="184" height="16"/>
			<rect x="280" y="152" width="184" height="16"/>
			<rect x="280" y="184" width="184" height="16"/>
			<rect x="448" y="216" width="16" height="16"/>
			<rect x="280" y="216" width="152" height="16"/>
		</g>
	</g>
</g>
</svg>